<?xml version="1.0" encoding="UTF-8" standalone="no"?>
<!-- Created with Inkscape (http://www.inkscape.org/) -->

<svg
   width="96.626869mm"
   height="90.94516mm"
   viewBox="0 0 96.626869 90.94516"
   version="1.1"
   id="svg1"
   xml:space="preserve"
   xmlns="http://www.w3.org/2000/svg"
   xmlns:svg="http://www.w3.org/2000/svg"><defs
     id="defs1" /><g
     transform="matrix(0.03527778,0,0,-0.03527778,-8.8194582,91.722229)"
     fill="#000000"
     stroke="none"
     id="g1"
     style="fill:#008500;fill-opacity:1"><path
       d="m 279,2543 c 59,-116 81,-252 81,-497 0,-176 -5,-252 -30,-428 -25,-175 -33,-360 -22,-496 7,-76 16,-151 21,-167 5,-17 19,-61 31,-100 84,-265 270,-466 566,-610 53,-26 98,-44 101,-41 3,3 -11,39 -31,81 -84,175 -153,390 -192,605 -21,113 -30,456 -14,530 6,30 16,78 22,105 22,107 72,235 91,235 5,0 6,-10 3,-22 -42,-143 -45,-462 -6,-643 5,-22 16,-76 26,-120 14,-67 50,-196 71,-255 3,-8 15,19 28,60 30,99 59,161 111,240 104,155 259,284 487,405 46,25 48,28 41,58 -3,17 -10,38 -14,47 -4,8 -16,35 -26,60 -78,193 -292,428 -544,601 -36,24 -67,46 -70,49 -11,12 -201,121 -275,159 -116,59 -259,124 -345,156 -41,16 -79,32 -84,37 -6,4 -20,8 -33,8 h -23 z"
       id="path1"
       style="fill:#008500;fill-opacity:1" /></g><g
     transform="matrix(0.01944289,-0.02358614,0.02358614,0.01944289,7.8279318,72.228876)"
     fill="#000000"
     stroke="none"
     id="g2"
     style="fill:#9ad312;fill-opacity:1"><path
       d="m 2419.0018,1694.8216 c -115.9999,-59 -251.9999,-81 -496.9999,-81 -176,0 -252,5 -428,30 -175,25 -359.9999,33 -495.99981,22 -76,-7 -151,-16 -167,-21 -17,-5 -61,-19 -100,-31 -265,-84 -466.0001,-269.9997 -610.0001,-565.9998 -26.000009,-52.99998 -44.000009,-97.99998 -41.000009,-100.99998 3,-3 39.000009,11 81.000009,31 175,83.99998 390.0001,153.00008 605.0001,192.00008 113.0001,21 455.99981,30 529.99981,14 30,-6 78,-16 105,-22 107,-22 235,-72.0001 235,-91.0001 0,-5 -10.0001,-6 -22,-3 -143,42.0001 -461.9999,45.0001 -642.99981,6 -22.0001,-5 -76,-16 -120,-26 -67,-14.0001 -682.6083,-129.27884 -741.60841,-150.27884 -8,-3 80.50961,-142.11947 229.49291,-319.14467 142.9786,-132.8542 236.0949,-167.3149 468.503,-248.6424 166.3802,-31.0288 256.80591,-76.2107 551.61231,-19.9338 37.7945,6.958 71.6892,25.7146 107,40 193,78.0001 428,291.9998 601,543.99977 24,35.99996 46,66.99996 49,69.99996 12,11 121,201.00008 159,275.00008 59,116 123.9999,258.9997 155.9999,344.9997 16,41 32,79 37,84 4,6 8,20 8,33 v 23 z"
       id="path1-5"
       style="fill:#9ad312;fill-opacity:1" /></g></svg>
